<svg width="61" height="60" viewBox="0 0 61 60" fill="none" xmlns="http://www.w3.org/2000/svg">
<path d="M26.6211 12.8596L13.8091 0.00216675L0.997131 12.8596V25.7151H26.6211V12.8596Z" fill="#1A1A1A"/>
<path d="M35.1611 34.2852L47.9731 47.1426L60.7851 34.2852V60H35.1611V34.2852Z" fill="#1A1A1A"/>
<path d="M26.6211 34.2852H0.997131V60H26.6211V34.2852Z" fill="#1A1A1A"/>
<path d="M35.1611 0H40.3035V1.1347H38.3585V6.15442H37.0987V1.1347H35.1611V0Z" fill="#1A1A1A"/>
<path d="M41.2433 6.15442V0H42.505V2.30509H45.2718V0H46.5261V6.15442H45.2718V3.45482H42.505V6.15442H41.2433Z" fill="#1A1A1A"/>
<path d="M47.6436 6.15442V0H52.2431V1.1347H48.9053V2.32012H51.5168V3.43791H48.9053V5.0216H52.2431V6.15442H47.6436Z" fill="#1A1A1A"/>
<path d="M54.6468 0H60.7795V2.30509C60.7795 3.29889 60.4912 4.1161 59.9221 4.74732C59.6345 5.04461 59.2904 5.28095 58.9102 5.44234C58.53 5.60373 58.1213 5.68689 57.7084 5.68689C57.2956 5.68689 56.8869 5.60373 56.5067 5.44234C56.1265 5.28095 55.7824 5.04461 55.4948 4.74732C54.9332 4.12174 54.6468 3.30453 54.6468 2.30509V0ZM55.77 1.26808V2.19801C55.77 3.57129 56.4888 4.37911 57.7075 4.37911C58.9262 4.37911 59.6488 3.56942 59.6488 2.19801V1.26808H55.77Z" fill="#1A1A1A"/>
<path d="M59.9745 7.51456C60.2806 7.80917 60.522 8.16474 60.6832 8.55846C60.8444 8.95218 60.9218 9.37536 60.9105 9.80086C60.9212 10.2249 60.8434 10.6465 60.6823 11.0386C60.5211 11.4307 60.28 11.7847 59.9745 12.0778C59.3669 12.6646 58.5564 12.9925 57.7131 12.9925C56.8698 12.9925 56.0593 12.6646 55.4517 12.0778C55.1462 11.7847 54.9051 11.4307 54.7439 11.0386C54.5828 10.6465 54.505 10.2249 54.5157 9.80086C54.5044 9.37536 54.5818 8.95218 54.743 8.55846C54.9042 8.16474 55.1456 7.80917 55.4517 7.51456C56.0615 6.932 56.8712 6.60709 57.7131 6.60709C58.555 6.60709 59.3647 6.932 59.9745 7.51456V7.51456ZM55.7063 9.8065C55.6998 10.0589 55.7465 10.3099 55.8432 10.543C55.94 10.7761 56.0847 10.986 56.2679 11.1591C56.6648 11.5101 57.1757 11.7037 57.7047 11.7037C58.2337 11.7037 58.7445 11.5101 59.1414 11.1591C59.3266 10.9871 59.4733 10.7775 59.5717 10.5444C59.6701 10.3112 59.7181 10.0597 59.7124 9.8065C59.7185 9.55161 59.6708 9.29831 59.5724 9.06324C59.4739 8.82817 59.3271 8.61666 59.1414 8.44261C58.7419 8.09721 58.232 7.90724 57.7047 7.90724C57.1773 7.90724 56.6675 8.09721 56.2679 8.44261C56.0842 8.61772 55.9393 8.82964 55.8426 9.06461C55.7458 9.29958 55.6994 9.55235 55.7063 9.8065" fill="#1A1A1A"/>
<path d="M54.6468 14.1405H60.7795V15.3973L58.2373 17.1839L60.7795 18.9667V20.216H54.6468V18.9667H58.8438L56.8707 17.5521V16.8495L58.8438 15.4067H54.6468V14.1405Z" fill="#1A1A1A"/>
</svg>
